<mxfile host="Electron" modified="2024-05-16T01:41:50.513Z" agent="Mozilla/5.0 (Windows NT 10.0; Win64; x64) AppleWebKit/537.36 (KHTML, like Gecko) draw.io/24.2.5 Chrome/120.0.6099.109 Electron/28.1.0 Safari/537.36" etag="3mErm28-WxKcDSSkJU5z" version="24.2.5" type="device">
  <diagram name="第 1 页" id="ewl9boTtj5eG1xmZE2dz">
    <mxGraphModel dx="98" dy="62" grid="1" gridSize="3.937" guides="1" tooltips="1" connect="1" arrows="1" fold="1" page="1" pageScale="1" pageWidth="48" pageHeight="48" background="#464647" math="0" shadow="0">
      <root>
        <mxCell id="0" />
        <mxCell id="1" parent="0" />
        <mxCell id="h4AXBYLEM3Z7pXykpD9Z-1" value="" style="rounded=0;whiteSpace=wrap;html=1;fillColor=none;strokeColor=#E6E6E6;strokeWidth=2;" parent="1" vertex="1">
          <mxGeometry x="3.94" y="35.43" width="7.87" height="7.88" as="geometry" />
        </mxCell>
        <mxCell id="h4AXBYLEM3Z7pXykpD9Z-3" value="" style="rounded=0;whiteSpace=wrap;html=1;fillColor=#E6E6E6;strokeColor=#E6E6E6;strokeWidth=2;" parent="1" vertex="1">
          <mxGeometry x="3.9400000000000013" y="20" width="7.88" height="7.87" as="geometry" />
        </mxCell>
        <mxCell id="MbK76j3_le6CKdziCJWd-2" value="" style="rounded=0;whiteSpace=wrap;html=1;fillColor=#E6E6E6;strokeColor=#E6E6E6;strokeWidth=2;" vertex="1" parent="1">
          <mxGeometry x="19.997" y="19.997" width="7.88" height="7.87" as="geometry" />
        </mxCell>
        <mxCell id="MbK76j3_le6CKdziCJWd-3" value="" style="rounded=0;whiteSpace=wrap;html=1;fillColor=#E6E6E6;strokeColor=#E6E6E6;strokeWidth=2;" vertex="1" parent="1">
          <mxGeometry x="35.434" y="20.004" width="7.88" height="7.87" as="geometry" />
        </mxCell>
        <mxCell id="MbK76j3_le6CKdziCJWd-4" value="" style="rounded=0;whiteSpace=wrap;html=1;fillColor=#E6E6E6;strokeColor=#E6E6E6;strokeWidth=2;" vertex="1" parent="1">
          <mxGeometry x="20.004" y="35.444" width="7.88" height="7.87" as="geometry" />
        </mxCell>
        <mxCell id="MbK76j3_le6CKdziCJWd-5" value="" style="rounded=0;whiteSpace=wrap;html=1;fillColor=#E6E6E6;strokeColor=#E6E6E6;strokeWidth=2;" vertex="1" parent="1">
          <mxGeometry x="3.9270000000000005" y="3.937000000000001" width="7.88" height="7.87" as="geometry" />
        </mxCell>
        <mxCell id="MbK76j3_le6CKdziCJWd-6" value="" style="rounded=0;whiteSpace=wrap;html=1;fillColor=#E6E6E6;strokeColor=#E6E6E6;strokeWidth=2;" vertex="1" parent="1">
          <mxGeometry x="19.994" y="3.9340000000000006" width="7.88" height="7.87" as="geometry" />
        </mxCell>
        <mxCell id="MbK76j3_le6CKdziCJWd-7" value="" style="rounded=0;whiteSpace=wrap;html=1;fillColor=#E6E6E6;strokeColor=#E6E6E6;strokeWidth=2;" vertex="1" parent="1">
          <mxGeometry x="35.431" y="3.9410000000000003" width="7.88" height="7.87" as="geometry" />
        </mxCell>
        <mxCell id="MbK76j3_le6CKdziCJWd-8" value="" style="rounded=0;whiteSpace=wrap;html=1;fillColor=#E6E6E6;strokeColor=#E6E6E6;strokeWidth=2;" vertex="1" parent="1">
          <mxGeometry x="35.431" y="35.431000000000004" width="7.88" height="7.87" as="geometry" />
        </mxCell>
      </root>
    </mxGraphModel>
  </diagram>
</mxfile>
